<?xml version="1.0" standalone="no"?><!DOCTYPE svg PUBLIC "-//W3C//DTD SVG 1.1//EN" "http://www.w3.org/Graphics/SVG/1.1/DTD/svg11.dtd"><svg class="icon" width="200px" height="200.00px" viewBox="0 0 1024 1024" version="1.1" xmlns="http://www.w3.org/2000/svg"><path d="M43.047418 318.945865l-0.218907 0.333335 453.814198 262.015234c4.547286 2.631854 9.716466 4.01992 14.947338 4.01992 5.393062 0 10.68662-1.452744 15.263758-4.1841l450.339554-259.995323c14.253802-8.253772 19.134424-26.569286 10.875676-40.828064-2.681605-4.634849-6.562222-8.462729-11.164235-11.039856L528.287643 9.122433c-4.547286-2.633844-9.711491-4.026886-14.945348-4.026886-5.887591 0-11.587122 1.708466-16.494609 4.945298L46.870323 269.831193c-14.258777 8.189095-19.194125 26.457843-11.002045 40.721596C37.724009 313.786636 40.166807 316.632421 43.047418 318.945865zM513.234832 69.460047l389.32134 225.769282L511.615918 520.941895 121.435868 295.662167 513.234832 69.460047zM976.904801 488.608401l-84.438231-48.965418-59.686864 34.459873 69.781442 40.469853L511.615918 740.2803 121.435868 515.006542l69.930696-40.373335-59.657013-34.442957-84.838233 48.985318c-14.258777 8.191086-19.196115 26.457843-11.002045 40.71662 1.887572 3.293549 4.383106 6.179135 7.328395 8.517455l-0.189056 0.31841 453.638078 261.910756c4.547286 2.631854 9.713481 4.01992 14.945348 4.01992 5.393062 0 10.68662-1.452744 15.263758-4.179125l450.339554-260.000299c14.253802-8.258748 19.134424-26.572272 10.875676-40.826074C985.382455 495.016393 981.506813 491.185528 976.904801 488.608401zM976.904801 707.951781l-84.089971-48.766412-59.681889 34.457883 69.428206 40.268857L511.615918 959.624675 121.435868 734.349922l69.582436-40.179304-59.654028-34.437982-84.492958 48.786312c-14.258777 8.189095-19.194125 26.457843-11.002045 40.71662 1.867671 3.253748 4.32838 6.119433 7.233867 8.437853l-0.206966 0.32836 453.747531 261.975433c4.549276 2.631854 9.718456 4.024896 14.947338 4.024896 5.393062 0 10.68662-1.452744 15.263758-4.179125l450.339554-260.000299c14.253802-8.258748 19.134424-26.577247 10.875676-40.826074C985.388425 714.359773 981.511789 710.528908 976.904801 707.951781z" /></svg>