<svg t="1619770328256" class="icon" viewBox="0 0 1024 1024" version="1.1"
    xmlns="http://www.w3.org/2000/svg" p-id="4852" width="200" height="200">
    <path d="M416 576h-384C12.8 576 0 563.2 0 544v-512C0 12.8 12.8 0 32 0h384c19.2 0 32 12.8 32 32v512c0 19.2-12.8 32-32 32zM64 512h320V64H64v448zM992 1024h-384c-19.2 0-32-12.8-32-32v-512c0-19.2 12.8-32 32-32h384c19.2 0 32 12.8 32 32v512c0 19.2-12.8 32-32 32zM640 960h320V512h-320v448zM992 320h-384c-19.2 0-32-12.8-32-32v-256c0-19.2 12.8-32 32-32h384c19.2 0 32 12.8 32 32v256c0 19.2-12.8 32-32 32zM640 256h320V64h-320v192zM416 1024h-384c-19.2 0-32-12.8-32-32v-256c0-19.2 12.8-32 32-32h384c19.2 0 32 12.8 32 32v256c0 19.2-12.8 32-32 32zM64 960h320v-192H64v192z" fill="#14ADC4" p-id="4853"></path>
</svg>