<?xml version="1.0" standalone="no"?><!DOCTYPE svg PUBLIC "-//W3C//DTD SVG 1.1//EN" "http://www.w3.org/Graphics/SVG/1.1/DTD/svg11.dtd"><svg class="icon" width="200px" height="200.00px" viewBox="0 0 1024 1024" version="1.1" xmlns="http://www.w3.org/2000/svg"><path d="M759.346121 577.574736c-42.688851 0-80.034044 23.209433-100.153391 57.654982L378.23655 524.711536a115.857744 115.857744 0 0 0 2.882237-25.592013c0-12.39106-1.975075-24.325468-5.592462-35.528821l200.419409-100.210729c16.926872 21.994081 43.492601 36.205609 73.328619 36.205609 51.008943 0 92.508039-41.499096 92.508039-92.508039s-41.499096-92.508039-92.508039-92.508039c-51.008943 0-92.508039 41.499096-92.508039 92.508039a92.214184 92.214184 0 0 0 3.432064 24.900891l-200.434768 100.219944c-21.022413-29.621002-55.564209-49.006223-94.572191-49.006224-63.923209 0-115.927368 52.00416-115.927369 115.927369s52.005183 115.927368 115.927369 115.927368c42.687827 0 80.034044-23.209433 100.15339-57.654983L646.299966 667.909066a115.876174 115.876174 0 0 0-2.882237 25.594062c0 63.922185 52.005183 115.927368 115.927368 115.927368s115.927368-52.005183 115.927368-115.927368c0.001024-63.923209-52.00416-115.928392-115.926344-115.928392zM649.273329 249.69901c31.638057 0 57.378534 25.739453 57.378534 57.378533 0 31.638057-25.739453 57.378534-57.378534 57.378534-31.638057 0-57.378534-25.739453-57.378533-57.378534 0-31.638057 25.740477-57.378534 57.378533-57.378533zM265.190395 579.917385c-44.552322 0-80.797863-36.24554-80.797863-80.797862s36.24554-80.797863 80.797863-80.797863 80.797863 36.24554 80.797862 80.797863-36.24554 80.797863-80.797862 80.797862z m494.155726 194.383605c-44.552322 0-80.797863-36.24554-80.797862-80.797862s36.24554-80.797863 80.797862-80.797863 80.797863 36.24554 80.797863 80.797863-36.24554 80.797863-80.797863 80.797862z" /></svg>