<?xml version="1.0" standalone="no"?><!DOCTYPE svg PUBLIC "-//W3C//DTD SVG 1.1//EN" "http://www.w3.org/Graphics/SVG/1.1/DTD/svg11.dtd"><svg t="1734753631100" class="icon" viewBox="0 0 1024 1024" version="1.1" xmlns="http://www.w3.org/2000/svg" p-id="9148" xmlns:xlink="http://www.w3.org/1999/xlink" width="200" height="200"><path d="M383.6 460c-14.1-14.1-36.9-14.1-50.9 0L213 579.8c-14.1 14.1-14.1 36.9 0 50.9l119.8 119.8c7 7 16.2 10.5 25.5 10.5s18.4-3.5 25.5-10.5c14.1-14.1 14.1-36.9 0-50.9l-94.3-94.3 94.3-94.3c13.9-14.1 13.9-36.9-0.2-51zM696.2 460c-14.1-14.1-36.9-14.1-50.9 0-14.1 14.1-14.1 36.9 0 50.9l94.3 94.3-94.3 94.3c-14.1 14.1-14.1 36.9 0 50.9 7 7 16.2 10.5 25.5 10.5s18.4-3.5 25.5-10.5l119.8-119.8c14.1-14.1 14.1-36.9 0-50.9L696.2 460zM572 399.9c-19.1-5.4-39 5.7-44.5 24.8l-99.4 351c-5.4 19.1 5.7 39 24.8 44.5 3.3 0.9 6.6 1.4 9.8 1.4 15.7 0 30.1-10.3 34.6-26.2l99.4-351c5.6-19.1-5.6-39-24.7-44.5z" p-id="9149" fill='#195ca3'></path><path d="M859.3 64.2H164.2c-55.2 0-100 44.8-100 100v695.1c0 55.2 44.8 100 100 100h695.1c55.2 0 100-44.8 100-100V164.2c0-55.2-44.7-100-100-100z m-723.1 100c0-15.4 12.6-28 28-28h695.1c15.4 0 28 12.6 28 28v82.9H136.2v-82.9z m723.1 723.1H164.2c-15.4 0-28-12.6-28-28V319.1h751.1v540.2c0 15.5-12.5 28-28 28z" p-id="9150" fill='#195ca3'></path></svg>