<?xml version="1.0" standalone="no"?><!DOCTYPE svg PUBLIC "-//W3C//DTD SVG 1.1//EN" "http://www.w3.org/Graphics/SVG/1.1/DTD/svg11.dtd"><svg class="icon" width="200px" height="200.00px" viewBox="0 0 1024 1024" version="1.1" xmlns="http://www.w3.org/2000/svg"><path d="M519.364267 925.3376c-5.461333 0-10.922667-2.082133-15.086934-6.2464L111.010133 525.815467a21.316267 21.316267 0 0 1 0-30.173867l109.7216-109.713067c-29.2864-5.4784-55.0144-18.824533-75.554133-39.364266a145.672533 145.672533 0 0 1-42.8544-102.7328c-0.256-39.0656 14.677333-75.648 42.0352-102.997334 27.1872-27.195733 63.470933-42.180267 102.186667-42.180266 39.048533 0 75.7248 15.172267 103.261866 42.717866 20.821333 20.8128 34.176 46.5152 39.6544 75.835734l102.536534-102.545067a21.367467 21.367467 0 0 1 30.173866 0l102.5024 102.519467c5.435733-29.2352 18.705067-54.8352 39.406934-75.537067 27.6224-27.639467 64.443733-42.8544 103.662933-42.8544 38.7072 0 74.9568 14.933333 102.0672 42.052267 56.490667 56.4736 56.2432 148.650667-0.554667 205.474133-20.6592 20.642133-46.498133 34.048-75.886933 39.569067l122.069333 122.052266a21.333333 21.333333 0 0 1 0 30.173867L778.359467 675.191467a21.333333 21.333333 0 0 1-36.2496-17.706667c4.650667-37.461333-4.642133-68.096-27.605334-91.067733a101.546667 101.546667 0 0 0-72.285866-29.943467c-27.306667 0-52.983467 10.632533-72.2944 29.943467a101.521067 101.521067 0 0 0-29.943467 72.277333c0 27.298133 10.632533 52.974933 29.943467 72.2944 22.8608 22.8608 54.024533 32.187733 91.0592 27.613867 9.028267-1.186133 17.800533 3.618133 21.802666 11.8016s2.3552 18.005333-4.087466 24.448l-144.247467 144.238933a21.2736 21.2736 0 0 1-15.086933 6.2464zM156.2624 510.737067l363.101867 363.1104L613.461333 779.7504c-28.373333-5.282133-53.495467-18.363733-73.710933-38.587733a143.9488 143.9488 0 0 1-42.4448-102.459734c0-38.7072 15.0784-75.093333 42.4448-102.4512 27.357867-27.357867 63.752533-42.436267 102.459733-42.436266s75.093333 15.0784 102.459734 42.4448c20.386133 20.394667 33.3824 45.3376 38.613333 73.6768l86.894933-86.903467-141.4656-141.4656a21.3504 21.3504 0 0 1 17.28-36.309333c37.956267 3.899733 69.956267-5.998933 93.090134-29.115734 40.1664-40.174933 40.413867-105.284267 0.554666-145.134933-19.0464-19.054933-44.586667-29.550933-71.893333-29.550933a103.176533 103.176533 0 0 0-73.489067 30.3616c-23.133867 23.125333-32.853333 54.357333-28.885333 92.834133a21.333333 21.333333 0 0 1-36.309333 17.271467L507.076267 159.9232 385.092267 281.915733a21.333333 21.333333 0 0 1-36.309334-17.271466c2.722133-26.461867-0.128-64.093867-29.149866-93.1072a102.673067 102.673067 0 0 0-73.096534-30.225067c-27.3152 0-52.8896 10.538667-72.0128 29.678933-19.2256 19.2256-29.7216 44.987733-29.5424 72.558934a103.296 103.296 0 0 0 30.3616 72.832c22.9888 22.997333 54.664533 32.810667 92.817067 28.868266a21.341867 21.341867 0 0 1 17.271467 36.309334L156.2624 510.737067z" /></svg>