<svg t="1602811639499"  viewBox="0 0 1024 1024" version="1.1" xmlns="http://www.w3.org/2000/svg" p-id="2165" width="240" height="240"><path d="M811.3152 243.6096H161.4848L102.4 419.328c0 54.1696 43.008 98.0992 96 98.0992 53.0432 0 96-43.9296 96-98.0992 0 54.1696 43.008 98.0992 96 98.0992 52.992 0 96-43.9296 96-98.0992 0 54.1696 43.008 98.0992 96 98.0992 52.992 0 96-43.9296 96-98.0992 0 54.1696 43.008 98.0992 96 98.0992 53.0432 0 96-43.9296 96-98.0992l-59.0848-175.7696z m-584.8576-30.72h519.8848c19.5584 0 35.4304-13.312 35.4304-29.6448 0-16.384-15.872-29.6448-35.4304-29.6448H226.4576c-19.5584 0-35.4304 13.312-35.4304 29.6448 0 16.384 15.872 29.6448 35.4304 29.6448zM678.4 522.24a137.7792 137.7792 0 0 1-96 38.656 137.7792 137.7792 0 0 1-96-38.7072 137.7792 137.7792 0 0 1-96 38.7072A137.7792 137.7792 0 0 1 294.4 522.24a137.7792 137.7792 0 0 1-103.424 38.4v216.3712c0 36.0448 31.8464 59.2384 59.136 59.2384h472.576c35.584 0 59.0848-26.88 59.0848-59.2384V560.64a137.7792 137.7792 0 0 1-103.424-38.4512z" fill="#0086FF" p-id="2166"></path></svg>