<?xml version="1.0" standalone="no"?><!DOCTYPE svg PUBLIC "-//W3C//DTD SVG 1.1//EN" "http://www.w3.org/Graphics/SVG/1.1/DTD/svg11.dtd"><svg t="1761889362316" class="icon" viewBox="0 0 1024 1024" version="1.1" xmlns="http://www.w3.org/2000/svg" p-id="7548" width="128" height="128" xmlns:xlink="http://www.w3.org/1999/xlink"><path d="M293.04 243.664c-9.744 0-16.336 1.184-23.2 2.784v1.12h1.184c4.576 8.784 12.368 15.2 18.128 23.072 4.56 9.04 8.464 18.08 13.024 27.04l1.184-1.248c7.968-5.6 11.856-14.56 11.856-28.16-3.392-3.968-3.888-7.952-6.768-11.84-3.392-5.664-10.672-8.464-15.232-12.944l-0.176 0.176z m577.28 491.264c-45.312-1.184-80.432 3.376-109.808 15.888-8.48 3.392-22.016 3.392-23.2 14.128 4.656 4.48 5.328 11.84 9.312 18.08 6.768 11.344 18.464 26.48 29.28 34.416 11.872 9.312 23.712 18.272 36.16 26.224 22.016 13.52 46.992 21.552 68.576 35.168 12.272 7.952 24.8 18.016 37.248 26.464 6.176 4.224 10.16 11.84 18.112 14.56v-1.696c-3.888-5.088-5.088-12.432-8.896-18.096-5.664-5.664-11.344-10.752-16.928-16.32a272.656 272.656 0 0 0-58.832-57.088c-18.112-12.336-57.744-29.6-65.184-50.304l-1.104-1.184c12.368-1.104 27.088-5.584 38.944-8.96 19.216-5.072 36.832-3.968 56.72-8.96 8.96-2.288 18.032-5.072 27.088-7.952v-5.072c-10.16-10.144-17.776-23.936-28.272-33.392a750.64 750.64 0 0 0-93.456-69.6c-17.776-11.328-40.304-18.592-59.008-28.24-6.768-3.376-18.112-5.072-22.016-10.72-10.16-12.352-16.08-28.768-23.28-43.472a1494.768 1494.768 0 0 1-46.304-98.336c-10.16-22.16-16.336-44.224-28.784-64.512-58.4-96.144-121.648-154.4-218.928-211.392-20.896-11.84-45.952-16.912-72.464-23.168-14.128-0.672-28.272-1.696-42.32-2.288-9.312-3.968-18.288-14.72-26.24-19.856-32.16-20.304-115.472-64.272-139.184-6.096-15.232 36.704 22.608 72.88 35.728 91.488 9.744 12.944 22.016 27.728 28.8 42.272 3.968 9.808 5.056 19.872 9.04 30.112 8.976 24.848 17.52 52.592 29.376 75.84 6.176 11.84 12.96 24.272 20.912 34.928 4.576 6.16 12.368 9.04 14.144 19.2-7.968 11.488-8.48 28.224-13.04 42.256-20.32 64-12.368 143.152 16.416 190.24 9.056 14.048 30.656 45.168 59.52 33.248 25.392-10.16 19.808-42.288 27.088-70.608 1.696-6.768 0.592-11.248 4.064-15.808v1.264c7.952 15.904 15.92 31.04 23.2 46.928 17.44 27.728 47.904 56.48 73.392 75.68 13.536 10.144 24.288 27.728 41.232 33.984v-1.68h-1.28c-3.632-4.912-8.464-7.28-13.024-11.248a291.344 291.344 0 0 1-29.632-33.824 740.48 740.48 0 0 1-63.248-102.992c-9.312-17.76-17.104-36.864-24.544-54.368-3.392-6.768-3.392-16.912-9.056-20.288-8.48 12.336-20.912 23.088-27.088 38.304-10.752 24.352-11.856 54.272-15.92 85.392-2.288 0.592-1.184 0-2.288 1.184-18.112-4.4-24.288-23.168-31.072-38.88-16.928-40.176-19.712-104.688-5.072-150.944 3.968-11.84 20.912-49.2 14.128-60.544-3.552-10.72-14.72-16.896-20.896-25.6a209.44 209.44 0 0 1-20.32-36.112c-13.552-31.632-20.32-66.64-35.04-98.256-6.784-14.624-18.64-29.92-28.288-43.376-10.752-15.216-22.608-25.952-31.152-43.968-2.8-6.176-6.768-16.4-2.288-23.168 1.184-4.56 3.552-6.336 7.952-7.616 7.456-6.08 28.368 1.872 35.728 5.248 20.912 8.448 38.528 16.4 56.048 28.24 7.952 5.584 16.512 16.32 26.672 19.104h11.84c18.128 3.984 38.528 1.184 55.456 6.176 30.048 9.632 57.136 23.68 81.44 38.896a503.568 503.568 0 0 1 176.512 193.28c6.768 13.024 9.728 24.96 15.904 38.48 11.856 27.904 26.496 56.064 38.528 83.04 11.84 26.624 23.28 53.76 40.288 75.84 8.48 11.84 42.496 18.016 57.744 24.176 11.248 5.072 28.784 9.728 38.944 15.904 19.456 11.84 38.432 25.36 56.704 38.4 9.312 6.4 37.504 20.528 39.2 31.952z" fill="#3480AF" p-id="7549"></path></svg>