<?xml version="1.0" standalone="no"?><!DOCTYPE svg PUBLIC "-//W3C//DTD SVG 1.1//EN" "http://www.w3.org/Graphics/SVG/1.1/DTD/svg11.dtd"><svg t="1761889457580" class="icon" viewBox="0 0 1024 1024" version="1.1" xmlns="http://www.w3.org/2000/svg" p-id="13726" xmlns:xlink="http://www.w3.org/1999/xlink" width="128" height="128"><path d="M955.758524 409.252369h-321.520886a29.23879 29.23879 0 0 1-29.227453-29.223675v-335.086052C605.010185 20.12859 584.889151 0 560.086435 0h-114.774907c-24.81783 0-44.927528 20.12859-44.927528 44.942642v333.056945c0 17.279528-13.969476 31.324576-31.249004 31.400147l-105.366199 0.502554c-17.426893 0.094465-31.585299-14.045048-31.551291-31.456827l0.653697-333.427247C232.927882 20.166376 212.799292 0 187.947454 0H73.267011C48.445402 0 28.339483 20.12859 28.339483 44.942642V983.22893c0 22.044339 17.857653 39.901993 39.8831 39.901993H955.758524c22.044339 0 39.901993-17.857653 39.901993-39.901993V449.154362c0-22.044339-17.857653-39.901993-39.901993-39.901993z m-150.773609 352.290007c0 28.88738-23.419749 52.310908-52.307129 52.310908H661.972546c-28.891159 0-52.310908-23.423528-52.310908-52.310908v-90.705239c0-28.891159 23.419749-52.310908 52.310908-52.310908h90.70524c28.88738 0 52.307129 23.419749 52.307129 52.310908v90.705239z" fill="#FF6600" p-id="13727"></path></svg>