<?xml version="1.0" standalone="no"?><!DOCTYPE svg PUBLIC "-//W3C//DTD SVG 1.1//EN" "http://www.w3.org/Graphics/SVG/1.1/DTD/svg11.dtd"><svg t="1761889446486" class="icon" viewBox="0 0 1191 1024" version="1.1" xmlns="http://www.w3.org/2000/svg" p-id="12724" xmlns:xlink="http://www.w3.org/1999/xlink" width="148.875" height="128"><path d="M1144.888041 786.352873c-63.5904 33.145018-393.001891 168.587636-463.131928 205.149091-70.130036 36.566109-109.088582 36.212364-164.491636 9.728-55.3984-26.484364-405.950836-168.084945-469.099054-198.269673C16.607604 787.879564 0.009495 775.144727 0.009495 763.117382v-120.441018s456.378182-99.351273 530.054982-125.784437c73.672145-26.433164 99.234909-27.387345 161.931636-4.421818 62.706036 22.974836 437.611055 90.614691 499.577019 113.310255l-0.027928 118.737454c0.009309 11.906327-14.289455 24.966982-46.657163 41.835055" fill="#912626" p-id="12725"></path><path d="M1144.864768 666.624c-63.585745 33.131055-392.987927 168.578327-463.117964 205.135127-70.125382 36.570764-109.083927 36.212364-164.482327 9.728-55.403055-26.465745-405.941527-168.0896-469.085091-198.255709-63.143564-30.184727-64.465455-50.957964-2.438982-75.245382 62.026473-24.296727 410.642618-161.070545 484.328728-187.503709 73.672145-26.423855 99.230255-27.387345 161.926981-4.412509 62.701382 22.965527 390.139345 153.297455 452.096 175.988364 61.979927 22.718836 64.3584 41.425455 0.772655 74.565818" fill="#C6302B" p-id="12726"></path><path d="M1144.888041 591.471709c-63.5904 33.149673-393.001891 168.587636-463.131928 205.163055-70.130036 36.552145-109.088582 36.1984-164.491636 9.714036-55.403055-26.4704-405.950836-168.084945-469.099054-198.269673C16.607604 592.9984 0.009495 580.282182 0.009495 568.250182V447.7952s456.378182-99.346618 530.054982-125.779782c73.672145-26.433164 99.234909-27.392 161.931636-4.421818C754.706804 340.563782 1129.611823 408.189673 1191.573132 430.889891l-0.027928 118.751418c0.009309 11.901673-14.289455 24.962327-46.657163 41.8304" fill="#912626" p-id="12727"></path><path d="M1144.864768 471.742836c-63.585745 33.140364-392.987927 168.578327-463.117964 205.149091-70.125382 36.5568-109.083927 36.1984-164.482327 9.714037-55.403055-26.465745-405.941527-168.084945-469.085091-198.255709-63.143564-30.175418-64.465455-50.953309-2.438982-75.250037C107.766877 388.817455 456.387677 252.034327 530.069132 225.605818c73.672145-26.428509 99.230255-27.387345 161.926981-4.417163 62.701382 22.965527 390.139345 153.288145 452.096 175.988363 61.979927 22.714182 64.3584 41.425455 0.772655 74.565818" fill="#C6302B" p-id="12728"></path><path d="M1144.888041 389.366691c-63.5904 33.140364-393.001891 168.587636-463.131928 205.163054-70.130036 36.5568-109.088582 36.1984-164.491636 9.714037-55.403055-26.4704-405.950836-168.0896-469.099054-198.260364C16.607604 390.888727 0.009495 378.167855 0.009495 366.149818v-120.459636s456.378182-99.341964 530.054982-125.770473c73.672145-26.437818 99.234909-27.387345 161.931636-4.421818C754.706804 138.468073 1129.611823 206.093964 1191.573132 228.794182l-0.027928 118.746763c0.009309 11.892364-14.289455 24.953018-46.657163 41.825746" fill="#912626" p-id="12729"></path><path d="M1144.864768 269.637818c-63.585745 33.140364-392.987927 168.587636-463.117964 205.144437-70.125382 36.5568-109.083927 36.1984-164.482327 9.728C461.866077 458.025891 111.32295 316.416 48.184041 286.240582-14.964177 256.069818-16.281414 235.287273 45.740404 210.9952 107.766877 186.707782 456.387677 49.943273 530.069132 23.505455c73.672145-26.433164 99.230255-27.382691 161.926981-4.41251 62.701382 22.970182 390.139345 153.2928 452.096 175.993019 61.979927 22.695564 64.3584 41.411491 0.772655 74.551854" fill="#C6302B" p-id="12730"></path><path d="M741.399459 152.468945l-102.446546 10.635637-22.932945 55.184291-37.040873-61.579637-118.295272-10.630981 88.2688-31.832437-26.484364-48.863418 82.641454 32.321164 77.907782-25.506909-21.057163 50.52509 79.439127 29.7472m-131.495564 267.720146L418.709132 340.8896l273.966545-42.053818-82.771782 121.353309m-265.076363-237.046691c80.872727 0 146.432 25.413818 146.432 56.757527 0 31.353018-65.559273 56.762182-146.432 56.762182s-146.432-25.413818-146.432-56.762182c0-31.343709 65.559273-56.757527 146.432-56.757527" fill="#FFFFFF" p-id="12731"></path><path d="M862.473495 167.554327l162.145746 64.074473-162.006109 64.013964-0.139637-128.093091" fill="#621B1C" p-id="12732"></path><path d="M683.087313 238.512873l179.386182-70.958546 0.139637 128.088437-17.589528 6.879418-161.936291-64.009309" fill="#9A2928" p-id="12733"></path></svg>